<?xml version="1.0" encoding="UTF-8"?>
<svg version="1.1" xmlns="http://www.w3.org/2000/svg" width="195" height="207">
<path d="M0 0 C64.35 0 128.7 0 195 0 C195 68.31 195 136.62 195 207 C130.65 207 66.3 207 0 207 C0 138.69 0 70.38 0 0 Z " fill="#D4B896" transform="translate(0,0)"/>
<path d="M0 0 C64.35 0 128.7 0 195 0 C195 68.31 195 136.62 195 207 C130.65 207 66.3 207 0 207 C0 138.69 0 70.38 0 0 Z M14.3125 31.109375 C8.08493045 40.37659159 7.57022471 49.70262904 7.65942383 60.60766602 C7.66027142 62.06710289 7.65979238 63.52654104 7.65809631 64.98597717 C7.65724008 68.92344903 7.67480504 72.8606434 7.69581819 76.79805112 C7.71464746 80.92198841 7.71634033 85.04593297 7.71989441 89.16990662 C7.72919659 96.96826384 7.75378547 104.76649401 7.78394288 112.56479543 C7.81754396 121.44752576 7.83398721 130.33026235 7.84902918 139.21304047 C7.88033678 157.47543219 7.93306151 175.73770586 8 194 C27.0549117 194.14054609 46.10971731 194.24615435 65.16504097 194.31087303 C74.01401283 194.34173009 82.86266147 194.38375328 91.71142578 194.45263672 C99.42958078 194.51268994 107.14750154 194.55120829 114.86588371 194.56453097 C118.94781191 194.57231127 123.0290704 194.59042282 127.11078262 194.63438034 C130.96379388 194.67553319 134.81586864 194.68758472 138.66907883 194.67864609 C140.07262538 194.68027793 141.47620788 194.69195772 142.87956238 194.71523285 C155.54823317 194.9147912 165.52243674 191.8834253 175.5 183.875 C180.52597709 178.99781829 183.34805297 173.41484485 186 167 C186.34888716 166.2456004 186.69777431 165.49120081 187.05723381 164.71394062 C188.1469259 161.57704448 188.24613868 159.09875117 188.24050903 155.78007507 C188.24325836 154.52790695 188.24600769 153.27573883 188.24884033 151.98562622 C188.241763 150.60589503 188.23449339 149.22616482 188.22705078 147.84643555 C188.22648639 146.38758858 188.22680378 144.92874105 188.22793579 143.46989441 C188.2285092 139.51572123 188.21675679 135.56166959 188.20278788 131.60752463 C188.19027858 127.47287854 188.18910986 123.3382296 188.18673706 119.2035675 C188.18052288 111.3767784 188.16411289 103.55004522 188.14403808 95.72328073 C188.12167717 86.81161305 188.11068516 77.8999427 188.10064721 68.98825395 C188.07974662 50.65880427 188.04457183 32.32940663 188 14 C168.92778631 13.88291584 149.8556461 13.79488945 130.78314686 13.74093914 C121.92635354 13.71521714 113.06978424 13.68018231 104.21313477 13.62280273 C96.48876416 13.57278294 88.76455588 13.5406654 81.0400278 13.52955753 C76.95430971 13.52306999 72.86905582 13.5079499 68.78348732 13.47134972 C64.92809201 13.43709543 61.07334654 13.42700536 57.21781349 13.43446159 C55.81225029 13.43310003 54.40666251 13.42334371 53.00123215 13.40397263 C36.53216077 13.18835312 24.61353701 18.23307874 14.3125 31.109375 Z " fill="#FEFEFE" transform="translate(0,0)"/>
<path d="M0 0 C0.33 -1.32 0.66 -2.64 1 -4 C1.99 -4 2.98 -4 4 -4 C4 3.59 4 11.18 4 19 C2.68 19 1.36 19 0 19 C-0.08636719 18.28714844 -0.17273438 17.57429688 -0.26171875 16.83984375 C-1.23571907 10.20055719 -2.50272988 6.03265942 -7 1 C-10.03571452 -0.90852938 -12.43721059 -1.29620676 -16 -1.3125 C-16.845625 -1.32925781 -17.69125 -1.34601563 -18.5625 -1.36328125 C-21.56607211 -0.91563348 -22.8982236 -0.18795402 -25 2 C-25.59521879 4.33077869 -25.59521879 4.33077869 -25.4375 6.875 C-25.43556641 8.13957031 -25.43556641 8.13957031 -25.43359375 9.4296875 C-24.76012118 13.42198435 -23.02524085 16.13545293 -19.93457031 18.74169922 C-18.76812988 19.51537842 -18.76812988 19.51537842 -17.578125 20.3046875 C-16.28648437 21.18060547 -16.28648437 21.18060547 -14.96875 22.07421875 C-14.0715625 22.66847656 -13.174375 23.26273438 -12.25 23.875 C5.18472528 35.47266082 5.18472528 35.47266082 7 43 C7.62567336 48.3400494 7.94460411 54.01584128 5.5 58.9375 C0.3060945 65.30003423 -5.94306118 68.00667878 -14 69 C-20.00910288 69.59244676 -24.93500014 68.68374995 -30.640625 66.75390625 C-33.07599976 65.97571531 -35.48677518 65.45897545 -38 65 C-38.33 65.99 -38.66 66.98 -39 68 C-39.99 68 -40.98 68 -42 68 C-42 59.09 -42 50.18 -42 41 C-40.68 41 -39.36 41 -38 41 C-37.91363281 41.7734375 -37.82726562 42.546875 -37.73828125 43.34375 C-36.69223336 51.09793988 -35.13143765 57.31989588 -29.140625 62.65625 C-25.38001077 65.01692755 -21.37182053 65.24785124 -17 65 C-12.68848233 62.82291004 -12.68848233 62.82291004 -10 59 C-9.31966634 54.84068737 -9.11299424 50.85301609 -10.96484375 46.984375 C-15.47625953 41.28826383 -21.86915152 37.36527752 -27.86889648 33.38720703 C-33.54443241 29.57542286 -37.18882956 25.71675567 -41 20 C-41.80394697 14.40082948 -42.2767049 8.57669316 -39.71484375 3.40625 C-30.0826804 -8.35420457 -11.91943847 -8.02269897 0 0 Z " fill="#FCFBFA" transform="translate(151,79)"/>
<path d="M0 0 C2.609375 1.3828125 2.609375 1.3828125 4.81640625 2.7890625 C7.00338905 4.20510747 7.00338905 4.20510747 10.796875 3.8828125 C11.126875 2.5628125 11.456875 1.2428125 11.796875 -0.1171875 C12.456875 -0.1171875 13.116875 -0.1171875 13.796875 -0.1171875 C13.796875 7.8028125 13.796875 15.7228125 13.796875 23.8828125 C13.136875 23.8828125 12.476875 23.8828125 11.796875 23.8828125 C11.46816406 22.70525391 11.46816406 22.70525391 11.1328125 21.50390625 C9.17571944 15.02004103 7.27769259 9.19009032 1.796875 4.8828125 C-3.44234408 2.30671807 -8.47349494 2.2171643 -14.203125 2.8828125 C-20.57205556 5.77778094 -22.55694609 10.3305317 -25.390625 16.4453125 C-29.3309993 28.26643539 -28.9157845 46.3425095 -23.98046875 57.6953125 C-20.93913031 63.27515476 -18.26189857 66.76224175 -12.203125 68.8828125 C-6.77218699 69.20691687 -1.35360493 68.37159969 3.26171875 65.37109375 C8.59430978 60.20132993 10.39839579 53.05543826 10.796875 45.8828125 C11.786875 45.8828125 12.776875 45.8828125 13.796875 45.8828125 C13.796875 54.1328125 13.796875 62.3828125 13.796875 70.8828125 C12.806875 70.8828125 11.816875 70.8828125 10.796875 70.8828125 C10.796875 69.2328125 10.796875 67.5828125 10.796875 65.8828125 C9.848125 66.2953125 8.899375 66.7078125 7.921875 67.1328125 C7.27992187 67.40222656 6.63796875 67.67164063 5.9765625 67.94921875 C4.46910222 68.59488722 2.97470174 69.2716029 1.4921875 69.97265625 C-7.43189025 73.97851224 -15.61803617 74.00999476 -24.859375 70.8515625 C-34.60157605 66.82478607 -41.25499644 60.10385739 -45.39160156 50.41601562 C-46.81508877 45.97254294 -46.79655224 41.63827489 -46.703125 37.0078125 C-46.68886475 36.03618164 -46.67460449 35.06455078 -46.65991211 34.06347656 C-46.32547805 22.71749151 -43.6736197 15.3349088 -35.71875 7.05078125 C-26.22936731 -1.12718054 -11.95405134 -4.16933986 0 0 Z " fill="#FDFCFA" transform="translate(84.203125,75.1171875)"/>
<path d="M0 0 C0.66 0.33 1.32 0.66 2 1 C1 4 1 4 -1.9375 5.6875 C-5 7 -5 7 -7 7 C-7 6.34 -7 5.68 -7 5 C-7.66 4.67 -8.32 4.34 -9 4 C-8.43410156 3.79503906 -7.86820312 3.59007812 -7.28515625 3.37890625 C-6.55167969 3.10949219 -5.81820312 2.84007812 -5.0625 2.5625 C-4.33160156 2.29566406 -3.60070312 2.02882812 -2.84765625 1.75390625 C-1.01694322 1.14613052 -1.01694322 1.14613052 0 0 Z " fill="#F7F3ED" transform="translate(87,140)"/>
</svg>
